<?xml version="1.0" encoding="UTF-8" standalone="no"?>
<!DOCTYPE svg PUBLIC "-//W3C//DTD SVG 1.1//EN"
 "http://www.w3.org/Graphics/SVG/1.1/DTD/svg11.dtd">
<!-- Generated by graphviz version 2.47.0 (20210316.0004)
 -->
<!-- Title: dependencies Pages: 1 -->
<svg width="671pt" height="211pt"
 viewBox="0.00 0.00 671.00 211.00" xmlns="http://www.w3.org/2000/svg" xmlns:xlink="http://www.w3.org/1999/xlink">
<g id="graph0" class="graph" transform="scale(1 1) rotate(0) translate(4 207)">
<title>dependencies</title>
<polygon fill="white" stroke="transparent" points="-4,4 -4,-207 667,-207 667,4 -4,4"/>
<text text-anchor="start" x="310.51" y="-42.4" font-family="Times-12" font-weight="bold" font-size="14.00">Legend</text>
<polygon fill="#ffffb3" stroke="transparent" points="97.5,-10 97.5,-30 117.5,-30 117.5,-10 97.5,-10"/>
<text text-anchor="start" x="121.13" y="-15.4" font-family="Times-12" font-size="14.00"> &#160;Declarations</text>
<polygon fill="#8dd3c7" stroke="transparent" points="210.5,-10 210.5,-30 230.5,-30 230.5,-10 210.5,-10"/>
<text text-anchor="start" x="234.23" y="-15.4" font-family="Times-12" font-size="14.00"> &#160;Module</text>
<polygon fill="#80b1d3" stroke="transparent" points="296.5,-10 296.5,-30 316.5,-30 316.5,-10 296.5,-10"/>
<text text-anchor="start" x="320.28" y="-15.4" font-family="Times-12" font-size="14.00"> &#160;Bootstrap</text>
<polygon fill="#fdb462" stroke="transparent" points="393.5,-10 393.5,-30 413.5,-30 413.5,-10 393.5,-10"/>
<text text-anchor="start" x="417.17" y="-15.4" font-family="Times-12" font-size="14.00"> &#160;Providers</text>
<polygon fill="#fb8072" stroke="transparent" points="489.5,-10 489.5,-30 509.5,-30 509.5,-10 489.5,-10"/>
<text text-anchor="start" x="513.23" y="-15.4" font-family="Times-12" font-size="14.00"> &#160;Exports</text>
<g id="clust1" class="cluster">
<title>cluster_AppModule</title>
<polygon fill="none" stroke="black" stroke-dasharray="1,5" points="8,-70 8,-195 655,-195 655,-70 8,-70"/>
</g>
<g id="clust3" class="cluster">
<title>cluster_AppModule_imports</title>
<polygon fill="none" stroke="black" points="310,-78 310,-130 647,-130 647,-78 310,-78"/>
</g>
<g id="clust6" class="cluster">
<title>cluster_AppModule_providers</title>
<polygon fill="none" stroke="black" points="16,-78 16,-130 302,-130 302,-78 16,-78"/>
</g>
<!-- AuthorModule -->
<g id="node1" class="node">
<title>AuthorModule</title>
<polygon fill="#8dd3c7" stroke="black" points="638.71,-122 635.71,-126 614.71,-126 611.71,-122 539.29,-122 539.29,-86 638.71,-86 638.71,-122"/>
<text text-anchor="middle" x="589" y="-99.8" font-family="Times,serif" font-size="14.00">AuthorModule</text>
</g>
<!-- AppModule -->
<g id="node4" class="node">
<title>AppModule</title>
<polygon fill="#8dd3c7" stroke="black" points="401.66,-187 398.66,-191 377.66,-191 374.66,-187 318.34,-187 318.34,-151 401.66,-151 401.66,-187"/>
<text text-anchor="middle" x="360" y="-164.8" font-family="Times,serif" font-size="14.00">AppModule</text>
</g>
<!-- AuthorModule&#45;&gt;AppModule -->
<g id="edge1" class="edge">
<title>AuthorModule&#45;&gt;AppModule</title>
<path fill="none" stroke="black" d="M589,-122.28C589,-143.32 589,-175 589,-175 589,-175 411.74,-175 411.74,-175"/>
<polygon fill="black" stroke="black" points="411.74,-171.5 401.74,-175 411.74,-178.5 411.74,-171.5"/>
</g>
<!-- PostAllModule -->
<g id="node2" class="node">
<title>PostAllModule</title>
<polygon fill="#8dd3c7" stroke="black" points="521.56,-122 518.56,-126 497.56,-126 494.56,-122 420.44,-122 420.44,-86 521.56,-86 521.56,-122"/>
<text text-anchor="middle" x="471" y="-99.8" font-family="Times,serif" font-size="14.00">PostAllModule</text>
</g>
<!-- PostAllModule&#45;&gt;AppModule -->
<g id="edge2" class="edge">
<title>PostAllModule&#45;&gt;AppModule</title>
<path fill="none" stroke="black" d="M471,-122.02C471,-139.37 471,-163 471,-163 471,-163 411.96,-163 411.96,-163"/>
<polygon fill="black" stroke="black" points="411.96,-159.5 401.96,-163 411.96,-166.5 411.96,-159.5"/>
</g>
<!-- PostModule -->
<g id="node3" class="node">
<title>PostModule</title>
<polygon fill="#8dd3c7" stroke="black" points="401.67,-122 398.67,-126 377.67,-126 374.67,-122 318.33,-122 318.33,-86 401.67,-86 401.67,-122"/>
<text text-anchor="middle" x="360" y="-99.8" font-family="Times,serif" font-size="14.00">PostModule</text>
</g>
<!-- PostModule&#45;&gt;AppModule -->
<g id="edge3" class="edge">
<title>PostModule&#45;&gt;AppModule</title>
<path fill="none" stroke="black" d="M360,-122.11C360,-122.11 360,-140.99 360,-140.99"/>
<polygon fill="black" stroke="black" points="356.5,-140.99 360,-150.99 363.5,-140.99 356.5,-140.99"/>
</g>
<!-- AppService -->
<g id="node5" class="node">
<title>AppService</title>
<ellipse fill="#fdb462" stroke="black" cx="237" cy="-104" rx="56.74" ry="18"/>
<text text-anchor="middle" x="237" y="-99.8" font-family="Times,serif" font-size="14.00">AppService</text>
</g>
<!-- AppService&#45;&gt;AppModule -->
<g id="edge4" class="edge">
<title>AppService&#45;&gt;AppModule</title>
<path fill="none" stroke="black" d="M237,-122.02C237,-139.37 237,-163 237,-163 237,-163 308.01,-163 308.01,-163"/>
<polygon fill="black" stroke="black" points="308.01,-166.5 318.01,-163 308.01,-159.5 308.01,-166.5"/>
</g>
<!-- PostAllService -->
<g id="node6" class="node">
<title>PostAllService</title>
<ellipse fill="#fdb462" stroke="black" cx="93" cy="-104" rx="68.93" ry="18"/>
<text text-anchor="middle" x="93" y="-99.8" font-family="Times,serif" font-size="14.00">PostAllService</text>
</g>
<!-- PostAllService&#45;&gt;AppModule -->
<g id="edge5" class="edge">
<title>PostAllService&#45;&gt;AppModule</title>
<path fill="none" stroke="black" d="M93,-122.28C93,-143.32 93,-175 93,-175 93,-175 308.28,-175 308.28,-175"/>
<polygon fill="black" stroke="black" points="308.28,-178.5 318.28,-175 308.28,-171.5 308.28,-178.5"/>
</g>
</g>
</svg>
