<?xml version="1.0" encoding="UTF-8" standalone="no"?>
<!DOCTYPE svg PUBLIC "-//W3C//DTD SVG 1.1//EN"
 "http://www.w3.org/Graphics/SVG/1.1/DTD/svg11.dtd">
<!-- Generated by graphviz version 2.47.0 (20210316.0004)
 -->
<!-- Title: dependencies Pages: 1 -->
<svg width="654pt" height="363pt"
 viewBox="0.00 0.00 654.00 363.00" xmlns="http://www.w3.org/2000/svg" xmlns:xlink="http://www.w3.org/1999/xlink">
<g id="graph0" class="graph" transform="scale(1 1) rotate(0) translate(4 359)">
<title>dependencies</title>
<polygon fill="white" stroke="transparent" points="-4,4 -4,-359 650,-359 650,4 -4,4"/>
<text text-anchor="start" x="302.01" y="-42.4" font-family="Times-12" font-weight="bold" font-size="14.00">Legend</text>
<polygon fill="#ffffb3" stroke="transparent" points="89,-10 89,-30 109,-30 109,-10 89,-10"/>
<text text-anchor="start" x="112.63" y="-15.4" font-family="Times-12" font-size="14.00"> &#160;Declarations</text>
<polygon fill="#8dd3c7" stroke="transparent" points="202,-10 202,-30 222,-30 222,-10 202,-10"/>
<text text-anchor="start" x="225.73" y="-15.4" font-family="Times-12" font-size="14.00"> &#160;Module</text>
<polygon fill="#80b1d3" stroke="transparent" points="288,-10 288,-30 308,-30 308,-10 288,-10"/>
<text text-anchor="start" x="311.78" y="-15.4" font-family="Times-12" font-size="14.00"> &#160;Bootstrap</text>
<polygon fill="#fdb462" stroke="transparent" points="385,-10 385,-30 405,-30 405,-10 385,-10"/>
<text text-anchor="start" x="408.67" y="-15.4" font-family="Times-12" font-size="14.00"> &#160;Providers</text>
<polygon fill="#fb8072" stroke="transparent" points="481,-10 481,-30 501,-30 501,-10 481,-10"/>
<text text-anchor="start" x="504.73" y="-15.4" font-family="Times-12" font-size="14.00"> &#160;Exports</text>
<g id="clust1" class="cluster">
<title>cluster_AppModule</title>
<polygon fill="none" stroke="black" stroke-dasharray="1,5" points="162,-70 162,-347 464,-347 464,-70 162,-70"/>
</g>
<g id="clust3" class="cluster">
<title>cluster_AppModule_imports</title>
<polygon fill="none" stroke="black" points="209,-154 209,-282 444,-282 444,-154 209,-154"/>
</g>
<g id="clust6" class="cluster">
<title>cluster_AppModule_providers</title>
<polygon fill="none" stroke="black" points="170,-78 170,-130 456,-130 456,-78 170,-78"/>
</g>
<g id="clust7" class="cluster">
<title>cluster_AuthorModule</title>
<polygon fill="none" stroke="black" stroke-dasharray="1,5" points="472,-70 472,-138 638,-138 638,-70 472,-70"/>
</g>
<g id="clust12" class="cluster">
<title>cluster_AuthorModule_providers</title>
<polygon fill="none" stroke="black" points="480,-78 480,-130 630,-130 630,-78 480,-78"/>
</g>
<g id="clust13" class="cluster">
<title>cluster_PostAllModule</title>
<polygon fill="none" stroke="black" stroke-dasharray="1,5" points="472,-222 472,-290 608,-290 608,-222 472,-222"/>
</g>
<g id="clust16" class="cluster">
<title>cluster_PostAllModule_exports</title>
<polygon fill="none" stroke="black" points="480,-230 480,-282 600,-282 600,-230 480,-230"/>
</g>
<g id="clust19" class="cluster">
<title>cluster_PostModule</title>
<polygon fill="none" stroke="black" stroke-dasharray="1,5" points="8,-146 8,-214 154,-214 154,-146 8,-146"/>
</g>
<g id="clust24" class="cluster">
<title>cluster_PostModule_providers</title>
<polygon fill="none" stroke="black" points="16,-154 16,-206 146,-206 146,-154 16,-154"/>
</g>
<!-- AuthorModule -->
<g id="node1" class="node">
<title>AuthorModule</title>
<polygon fill="#8dd3c7" stroke="black" points="435.71,-198 432.71,-202 411.71,-202 408.71,-198 336.29,-198 336.29,-162 435.71,-162 435.71,-198"/>
<text text-anchor="middle" x="386" y="-175.8" font-family="Times,serif" font-size="14.00">AuthorModule</text>
</g>
<!-- AppModule -->
<g id="node4" class="node">
<title>AppModule</title>
<polygon fill="#8dd3c7" stroke="black" points="365.66,-339 362.66,-343 341.66,-343 338.66,-339 282.34,-339 282.34,-303 365.66,-303 365.66,-339"/>
<text text-anchor="middle" x="324" y="-316.8" font-family="Times,serif" font-size="14.00">AppModule</text>
</g>
<!-- AuthorModule&#45;&gt;AppModule -->
<g id="edge1" class="edge">
<title>AuthorModule&#45;&gt;AppModule</title>
<path fill="none" stroke="black" d="M351.11,-198.14C351.11,-198.14 351.11,-292.93 351.11,-292.93"/>
<polygon fill="black" stroke="black" points="347.61,-292.92 351.11,-302.93 354.61,-292.93 347.61,-292.92"/>
</g>
<!-- PostAllModule -->
<g id="node2" class="node">
<title>PostAllModule</title>
<polygon fill="#8dd3c7" stroke="black" points="318.56,-198 315.56,-202 294.56,-202 291.56,-198 217.44,-198 217.44,-162 318.56,-162 318.56,-198"/>
<text text-anchor="middle" x="268" y="-175.8" font-family="Times,serif" font-size="14.00">PostAllModule</text>
</g>
<!-- PostModule -->
<g id="node3" class="node">
<title>PostModule</title>
<polygon fill="#8dd3c7" stroke="black" points="304.67,-274 301.67,-278 280.67,-278 277.67,-274 221.33,-274 221.33,-238 304.67,-238 304.67,-274"/>
<text text-anchor="middle" x="263" y="-251.8" font-family="Times,serif" font-size="14.00">PostModule</text>
</g>
<!-- PostAllModule&#45;&gt;PostModule -->
<g id="edge9" class="edge">
<title>PostAllModule&#45;&gt;PostModule</title>
<path fill="none" stroke="black" d="M263,-198.01C263,-198.01 263,-227.85 263,-227.85"/>
<polygon fill="black" stroke="black" points="259.5,-227.85 263,-237.85 266.5,-227.85 259.5,-227.85"/>
</g>
<!-- PostAllModule&#45;&gt;AppModule -->
<g id="edge2" class="edge">
<title>PostAllModule&#45;&gt;AppModule</title>
<path fill="none" stroke="black" d="M309.48,-198.14C309.48,-198.14 309.48,-292.93 309.48,-292.93"/>
<polygon fill="black" stroke="black" points="305.98,-292.92 309.48,-302.93 312.98,-292.93 305.98,-292.92"/>
</g>
<!-- PostAllService  -->
<g id="node8" class="node">
<title>PostAllService </title>
<polygon fill="#fb8072" stroke="black" points="591.98,-274 488.02,-274 488.02,-238 591.98,-238 591.98,-274"/>
<text text-anchor="middle" x="540" y="-251.8" font-family="Times,serif" font-size="14.00">PostAllService </text>
</g>
<!-- PostAllModule&#45;&gt;PostAllService  -->
<g id="edge7" class="edge">
<title>PostAllModule&#45;&gt;PostAllService </title>
<path fill="none" stroke="black" stroke-dasharray="5,2" d="M314.13,-198.01C314.13,-220.49 314.13,-256 314.13,-256 314.13,-256 478.18,-256 478.18,-256"/>
<polygon fill="black" stroke="black" points="478.18,-259.5 488.18,-256 478.18,-252.5 478.18,-259.5"/>
</g>
<!-- PostModule&#45;&gt;AppModule -->
<g id="edge3" class="edge">
<title>PostModule&#45;&gt;AppModule</title>
<path fill="none" stroke="black" d="M293.5,-274.11C293.5,-274.11 293.5,-292.99 293.5,-292.99"/>
<polygon fill="black" stroke="black" points="290,-292.99 293.5,-302.99 297,-292.99 290,-292.99"/>
</g>
<!-- AppService -->
<g id="node5" class="node">
<title>AppService</title>
<ellipse fill="#fdb462" stroke="black" cx="235" cy="-104" rx="56.74" ry="18"/>
<text text-anchor="middle" x="235" y="-99.8" font-family="Times,serif" font-size="14.00">AppService</text>
</g>
<!-- AppService&#45;&gt;AppModule -->
<g id="edge4" class="edge">
<title>AppService&#45;&gt;AppModule</title>
<path fill="none" stroke="black" d="M197.8,-117.57C197.8,-165.08 197.8,-321 197.8,-321 197.8,-321 272.33,-321 272.33,-321"/>
<polygon fill="black" stroke="black" points="272.33,-324.5 282.33,-321 272.33,-317.5 272.33,-324.5"/>
</g>
<!-- PostAllService -->
<g id="node6" class="node">
<title>PostAllService</title>
<ellipse fill="#fdb462" stroke="black" cx="379" cy="-104" rx="68.93" ry="18"/>
<text text-anchor="middle" x="379" y="-99.8" font-family="Times,serif" font-size="14.00">PostAllService</text>
</g>
<!-- PostAllService&#45;&gt;PostAllModule -->
<g id="edge8" class="edge">
<title>PostAllService&#45;&gt;PostAllModule</title>
<path fill="none" stroke="black" d="M314.41,-110.48C314.41,-110.48 314.41,-151.91 314.41,-151.91"/>
<polygon fill="black" stroke="black" points="310.91,-151.91 314.41,-161.91 317.91,-151.91 310.91,-151.91"/>
</g>
<!-- PostAllService&#45;&gt;AppModule -->
<g id="edge5" class="edge">
<title>PostAllService&#45;&gt;AppModule</title>
<path fill="none" stroke="black" d="M327.59,-116.29C327.59,-116.29 327.59,-292.99 327.59,-292.99"/>
<polygon fill="black" stroke="black" points="324.09,-292.99 327.59,-302.99 331.09,-292.99 324.09,-292.99"/>
</g>
<!-- AuthorService -->
<g id="node7" class="node">
<title>AuthorService</title>
<ellipse fill="#fdb462" stroke="black" cx="555" cy="-104" rx="67.19" ry="18"/>
<text text-anchor="middle" x="555" y="-99.8" font-family="Times,serif" font-size="14.00">AuthorService</text>
</g>
<!-- AuthorService&#45;&gt;AuthorModule -->
<g id="edge6" class="edge">
<title>AuthorService&#45;&gt;AuthorModule</title>
<path fill="none" stroke="black" d="M540,-121.63C540,-144.08 540,-180 540,-180 540,-180 446,-180 446,-180"/>
<polygon fill="black" stroke="black" points="446,-176.5 436,-180 446,-183.5 446,-176.5"/>
</g>
<!-- PostService -->
<g id="node9" class="node">
<title>PostService</title>
<ellipse fill="#fdb462" stroke="black" cx="81" cy="-180" rx="56.76" ry="18"/>
<text text-anchor="middle" x="81" y="-175.8" font-family="Times,serif" font-size="14.00">PostService</text>
</g>
<!-- PostService&#45;&gt;PostModule -->
<g id="edge10" class="edge">
<title>PostService&#45;&gt;PostModule</title>
<path fill="none" stroke="black" d="M81,-198.01C81,-220.49 81,-256 81,-256 81,-256 211.25,-256 211.25,-256"/>
<polygon fill="black" stroke="black" points="211.25,-259.5 221.25,-256 211.25,-252.5 211.25,-259.5"/>
</g>
</g>
</svg>
